<?xml version="1.0" encoding="UTF-8" standalone="no"?>
<svg
   xmlns:dc="http://purl.org/dc/elements/1.1/"
   xmlns:cc="http://creativecommons.org/ns#"
   xmlns:rdf="http://www.w3.org/1999/02/22-rdf-syntax-ns#"
   xmlns:svg="http://www.w3.org/2000/svg"
   xmlns="http://www.w3.org/2000/svg"
   id="svg897"
   version="1.1"
   viewBox="0 0 210 50"
   height="50mm"
   width="210mm">
  <defs
     id="defs891" />
  <metadata
     id="metadata894">
    <rdf:RDF>
      <cc:Work
         rdf:about="">
        <dc:format>image/svg+xml</dc:format>
        <dc:type
           rdf:resource="http://purl.org/dc/dcmitype/StillImage" />
        <dc:title></dc:title>
      </cc:Work>
    </rdf:RDF>
  </metadata>
  <g
     transform="translate(0,-247)"
     id="layer1">
    <g
       style="stroke-width:0.50329608"
       transform="matrix(1.986902,0,0,1.986902,280.73438,179.05319)"
       id="g1501">
      <path
         style="clip-rule:evenodd;fill:#0c5da6;fill-rule:nonzero;stroke-width:0.0050329;image-rendering:optimizeQuality;shape-rendering:geometricPrecision;text-rendering:geometricPrecision"
         id="path9"
         d="m -103.82122,43.624803 c 0.43999,-0.07 0.85999,-0.1 1.28998,-0.07 0.43,0.04 0.84999,0.119999 1.26998,0.249997 0.42,0.139998 0.80999,0.319996 1.16999,0.539993 0.369992,0.229997 0.699989,0.499993 1.009985,0.809989 0.249997,0.259996 0.479994,0.529993 0.669991,0.819989 0.199996,0.299996 0.369994,0.609992 0.499994,0.949987 0.139996,0.329996 0.239996,0.669991 0.309994,1.019987 0.06,0.339995 0.1,0.69999 0.09,1.059985 0,0.569993 -0.09,1.129985 -0.279997,1.679978 -0.09,0.269996 -0.199996,0.529993 -0.329994,0.779989 -0.13,0.249997 -0.279998,0.489994 -0.449996,0.729991 -0.279995,0.369995 -0.589991,0.689991 -0.939987,0.979987 -0.349994,0.279996 -0.72999,0.519993 -1.14998,0.70999 -0.43,0.189997 -0.85999,0.329996 -1.28999,0.419994 -0.43999,0.08 -0.88998,0.109999 -1.33998,0.08 -0.47999,-0.04 -0.93999,-0.129998 -1.38998,-0.289996 -0.22,-0.08 -0.43999,-0.169997 -0.64999,-0.269996 -0.21,-0.109999 -0.41,-0.219997 -0.59999,-0.349996 -0.2,-0.129998 -0.38,-0.269996 -0.56,-0.419994 -0.16999,-0.159998 -0.33999,-0.319996 -0.49999,-0.489993 -0.16,-0.179998 -0.3,-0.359996 -0.42999,-0.559993 -0.13,-0.189997 -0.25,-0.389995 -0.36,-0.609992 -0.1,-0.209997 -0.19,-0.419994 -0.26,-0.629991 -0.08,-0.219997 -0.13999,-0.439994 -0.18999,-0.669991 -0.05,-0.219997 -0.08,-0.449994 -0.1,-0.669991 -0.02,-0.229997 -0.02,-0.459994 -0.01,-0.679991 0.01,-0.229997 0.04,-0.459994 0.08,-0.679991 0.03,-0.229997 0.09,-0.449994 0.14999,-0.669991 0.06,-0.229997 0.14,-0.439994 0.24,-0.649991 0.09,-0.209997 0.2,-0.409995 0.32,-0.609992 0.08,-0.149998 0.17999,-0.289996 0.28999,-0.439994 0.08,-0.1 0.17,-0.189998 0.25,-0.289996 l 1.40998,1.699977 -0.02,0.03 c -0.04,0.06 -0.07,0.109998 -0.11,0.159998 -0.03,0.06 -0.06,0.119998 -0.09,0.179997 -0.13999,0.259997 -0.23999,0.529993 -0.29999,0.809989 -0.06,0.279997 -0.08,0.569993 -0.06,0.869989 0.01,0.229997 0.04,0.449994 0.1,0.659991 0.06,0.219997 0.14,0.419995 0.23999,0.619992 0.03,0.05 0.06,0.1 0.08,0.149998 l 0.02,0.03 c 0.07,0.129998 0.16,0.249996 0.25,0.369995 0.11,0.139998 0.24,0.269996 0.38,0.399994 0.12999,0.119999 0.27999,0.229997 0.42999,0.329996 0.16,0.1 0.32,0.189997 0.48999,0.269996 0.17,0.07 0.35,0.129999 0.54,0.179998 0.17999,0.04 0.36999,0.06 0.55999,0.07 0.19,0.01 0.37999,0 0.56999,-0.02 0.19,-0.03 0.37,-0.07 0.54999,-0.129998 0.18,-0.06 0.35,-0.129998 0.51,-0.209997 0.16,-0.08 0.30999,-0.179998 0.45999,-0.289996 0.15,-0.109999 0.29,-0.229997 0.41,-0.359995 0.12999,-0.129999 0.24999,-0.259997 0.34999,-0.409995 0.11,-0.169998 0.21,-0.349995 0.289995,-0.529993 0.08,-0.189997 0.150001,-0.379995 0.189998,-0.579992 0.05,-0.189998 0.08,-0.389995 0.09,-0.589992 0.01,-0.199998 0,-0.399995 -0.03,-0.609993 -0.03,-0.199997 -0.08,-0.389994 -0.139996,-0.569992 -0.06,-0.179997 -0.13,-0.339995 -0.219997,-0.499993 -0.11,-0.19 -0.24,-0.379998 -0.38,-0.549995 -0.14,-0.169998 -0.29999,-0.329996 -0.47999,-0.469994 -0.17,-0.139998 -0.36,-0.259997 -0.55999,-0.359995 -0.19,-0.1 -0.4,-0.179998 -0.61999,-0.229997 -0.22,-0.06 -0.43,-0.1 -0.65,-0.109999 -0.21999,-0.01 -0.43999,-0.01 -0.66999,0.03 -0.1,0.01 -0.19999,0.03 -0.28999,0.05 -0.09,0.03 -0.19,0.05 -0.28,0.09 l -0.03,0.01 -1.42998,-1.719976 0.06,-0.02 c 0.25,-0.129999 0.49999,-0.239997 0.76999,-0.319996 0.26,-0.09 0.52999,-0.159998 0.79999,-0.209997 z"
         class="fil1" />
      <path
         style="clip-rule:evenodd;fill:#0c5da6;fill-rule:nonzero;stroke-width:0.0050329;image-rendering:optimizeQuality;shape-rendering:geometricPrecision;text-rendering:geometricPrecision"
         id="path11"
         d="m -108.99115,43.524805 c 0.14,0.01 0.28,0.04 0.39999,0.1 0.13,0.06 0.24,0.139997 0.34,0.239996 0.1,0.1 0.18,0.209997 0.22999,0.339996 0.05,0.119998 0.08,0.259996 0.08,0.399994 0,0.149998 -0.03,0.289996 -0.08,0.419995 -0.06,0.129998 -0.13999,0.249996 -0.24999,0.359995 -0.1,0.109999 -0.22,0.189997 -0.35,0.239997 -0.12999,0.06 -0.26999,0.08 -0.41999,0.08 h -0.09 c -0.21,0.02 -0.42,0.05 -0.61999,0.1 -0.2,0.04 -0.4,0.109998 -0.59,0.199997 -0.18999,0.09 -0.35999,0.189998 -0.52999,0.309996 -0.16,0.109999 -0.30999,0.239997 -0.44999,0.389995 -0.14,0.149998 -0.27,0.299996 -0.38,0.469994 -0.11,0.169997 -0.2,0.349995 -0.27999,0.539992 -0.08,0.199998 -0.14,0.389995 -0.18,0.599992 -0.04,0.199998 -0.06,0.419995 -0.06,0.639992 v 4.349942 c 0,0.149998 -0.03,0.289996 -0.08,0.419994 -0.06,0.129998 -0.14,0.249997 -0.24,0.349995 -0.11,0.109999 -0.23,0.189998 -0.35999,0.239997 -0.13,0.05 -0.27,0.08 -0.42,0.08 -0.15,0 -0.28999,-0.03 -0.41999,-0.08 -0.13,-0.05 -0.25,-0.129998 -0.35,-0.239997 -0.11,-0.1 -0.19,-0.219997 -0.23999,-0.349995 -0.05,-0.129998 -0.08,-0.269996 -0.08,-0.419994 v -4.349942 c 0,-0.369995 0.04,-0.72999 0.10999,-1.079986 0.06,-0.349995 0.17,-0.679991 0.31,-1.009986 0.13,-0.319996 0.3,-0.619992 0.48,-0.909988 0.19,-0.279996 0.39999,-0.539993 0.63999,-0.789989 0.23,-0.239997 0.48999,-0.459994 0.76999,-0.659992 0.28,-0.189997 0.57999,-0.359995 0.89999,-0.509993 0.31999,-0.149998 0.64999,-0.259996 0.98998,-0.339995 0.34,-0.08 0.69999,-0.119998 1.05999,-0.129998 h 0.01 z"
         class="fil1" />
      <path
         style="clip-rule:evenodd;fill:#0c5da6;fill-rule:nonzero;stroke-width:0.0050329;image-rendering:optimizeQuality;shape-rendering:geometricPrecision;text-rendering:geometricPrecision"
         id="path13"
         d="m -116.54105,43.524805 c 0.15,0 0.29,0.02 0.41999,0.08 0.13,0.05 0.24,0.129998 0.35,0.239997 0.1,0.109998 0.18,0.229996 0.24,0.359994 0.05,0.129999 0.07,0.269997 0.07,0.419995 v 4.349942 c 0,0.369995 -0.03,0.73999 -0.1,1.089985 -0.08,0.349995 -0.18,0.689991 -0.33,1.009987 -0.14,0.329995 -0.31,0.639991 -0.49999,0.929987 -0.2,0.279996 -0.42,0.549993 -0.65999,0.78999 -0.24,0.249996 -0.51,0.469993 -0.79999,0.659991 -0.28,0.199997 -0.59,0.359995 -0.91999,0.509993 -0.33,0.139998 -0.66999,0.249997 -1.01999,0.319996 -0.34999,0.07 -0.70999,0.109998 -1.07998,0.109998 -0.38,0 -0.73999,-0.04 -1.08999,-0.109998 -0.35999,-0.07 -0.69999,-0.179998 -1.02998,-0.319996 -0.33,-0.149998 -0.63,-0.309996 -0.91999,-0.509993 -0.29,-0.189998 -0.54999,-0.409995 -0.79999,-0.659991 -0.24,-0.239997 -0.46,-0.509994 -0.64999,-0.78999 -0.2,-0.289996 -0.37,-0.599992 -0.51,-0.929987 -0.13999,-0.319996 -0.24999,-0.659992 -0.31999,-1.009987 -0.07,-0.349995 -0.11,-0.71999 -0.11,-1.089985 V 44.62479 c 0,-0.149998 0.03,-0.289996 0.08,-0.419995 0.05,-0.129998 0.14,-0.249996 0.24,-0.359995 0.21999,-0.219997 0.47999,-0.319995 0.77999,-0.319995 0.14999,0 0.28999,0.02 0.41999,0.08 0.13,0.05 0.25,0.129998 0.35,0.239997 0.10999,0.109998 0.18999,0.229996 0.23999,0.359994 0.05,0.119999 0.08,0.259997 0.08,0.419995 v 4.339942 c 0,0.229997 0.02,0.449994 0.06,0.659991 0.04,0.199997 0.11,0.409994 0.19,0.599992 0.09,0.189997 0.19,0.379995 0.3,0.549993 0.11999,0.169997 0.24999,0.329995 0.38999,0.479993 0.15,0.149998 0.31,0.279997 0.47999,0.389995 0.17,0.119998 0.36,0.219997 0.55,0.299996 0.19999,0.09 0.40999,0.149998 0.61999,0.199997 0.21,0.04 0.41999,0.06 0.64999,0.06 0.43999,0 0.85999,-0.09 1.24998,-0.259996 0.2,-0.08 0.38,-0.179998 0.56,-0.299996 0.16999,-0.109998 0.32999,-0.239997 0.47999,-0.389995 0.15,-0.149998 0.28,-0.309996 0.39999,-0.479993 0.11,-0.169998 0.21,-0.359996 0.3,-0.549993 0.08,-0.189998 0.15,-0.399995 0.19,-0.599992 0.04,-0.199997 0.06,-0.399995 0.06,-0.609992 h -0.01 V 44.62479 c 0,-0.159998 0.02,-0.299996 0.08,-0.419995 0.05,-0.129998 0.13,-0.249996 0.23999,-0.359995 0.11,-0.109998 0.23,-0.189997 0.36,-0.239997 0.13,-0.06 0.27,-0.08 0.41999,-0.08 z"
         class="fil1" />
      <path
         style="clip-rule:evenodd;fill:#0c5da6;fill-rule:nonzero;stroke-width:0.0050329;image-rendering:optimizeQuality;shape-rendering:geometricPrecision;text-rendering:geometricPrecision"
         id="path15"
         d="m -127.40091,48.984731 c -0.01,0.299996 -0.11999,0.559993 -0.33999,0.75999 -0.11,0.109999 -0.22,0.189998 -0.35,0.239997 -0.12999,0.06 -0.26999,0.09 -0.42999,0.1 h -7.3799 c 0.01,0.04 0.03,0.09 0.05,0.129998 0.03,0.07 0.07,0.139998 0.1,0.209997 0.02,0.04 0.05,0.08 0.07,0.129999 0.08,0.149998 0.18,0.289996 0.28,0.419994 0.12,0.149998 0.24,0.279996 0.38,0.409994 0.13999,0.119999 0.27999,0.239997 0.43999,0.329996 0.15,0.1 0.31,0.189997 0.47999,0.259997 0.18,0.08 0.37,0.139998 0.57,0.179997 0.19999,0.04 0.40999,0.07 0.62999,0.08 h 0.07 c 0.14999,0 0.28999,0.03 0.41999,0.08 0.12,0.05 0.24,0.129998 0.34,0.229997 0.1,0.1 0.17999,0.219997 0.22999,0.339996 0.05,0.129998 0.08,0.269996 0.08,0.419994 0,0.149998 -0.03,0.289996 -0.08,0.419994 -0.05,0.129998 -0.12999,0.249997 -0.22999,0.349995 -0.1,0.109999 -0.22,0.189998 -0.34,0.239997 -0.13,0.05 -0.27,0.08 -0.41999,0.08 h -0.19 c -0.04,0 -0.07,0 -0.1,-0.01 -0.03,0 -0.06,0 -0.09,-0.01 -0.22999,-0.02 -0.45999,-0.05 -0.68999,-0.1 -0.23,-0.04 -0.45999,-0.109999 -0.68999,-0.189998 -0.22,-0.07 -0.43999,-0.169997 -0.64999,-0.269996 -0.21,-0.1 -0.41,-0.209997 -0.59999,-0.339996 -0.39,-0.249998 -0.73999,-0.549994 -1.05999,-0.899989 -0.15,-0.179998 -0.29999,-0.359996 -0.42999,-0.559993 -0.13,-0.189997 -0.25,-0.389995 -0.36,-0.609992 -0.21,-0.419994 -0.35999,-0.849988 -0.44999,-1.299982 -0.08,-0.359996 -0.12,-0.729991 -0.12,-1.109986 v -0.04 c 0,-0.07 0,-0.149998 0.01,-0.219997 0.02,-0.469994 0.09,-0.919988 0.23,-1.359982 0.12999,-0.429994 0.31999,-0.849989 0.56999,-1.249983 l 0.07,-0.1 0.07,-0.109999 c 0.03,-0.03 0.05,-0.07 0.08,-0.109998 0.02,-0.03 0.05,-0.06 0.07,-0.09 l 0.05,-0.05 0.04,0.04 1.18999,1.43998 c 0.03,0.04 0.06,0.07 0.09,0.1 0.04,0.03 0.07,0.06 0.1,0.08 l 0.04,0.03 -0.02,0.04 c -0.05,0.09 -0.1,0.179998 -0.13999,0.269997 -0.03,0.08 -0.07,0.149998 -0.09,0.229997 h 6.14992 c -0.02,-0.06 -0.05,-0.129998 -0.08,-0.189997 -0.03,-0.09 -0.08,-0.179998 -0.13,-0.269997 -0.1,-0.199997 -0.22,-0.379995 -0.37,-0.549992 -0.13999,-0.169998 -0.29999,-0.329996 -0.46999,-0.469994 h -0.01 c -0.17,-0.139998 -0.35999,-0.259997 -0.55999,-0.359995 -0.2,-0.1 -0.41,-0.179998 -0.62999,-0.239997 -0.21,-0.06 -0.43,-0.09 -0.64999,-0.109999 -0.22,-0.01 -0.44,0 -0.67,0.04 -0.14999,0.02 -0.29999,0.06 -0.43999,0.1 -0.15,0.05 -0.29,0.1 -0.42999,0.159998 l -0.04,0.02 -0.02,-0.03 c -0.01,-0.02 -0.03,-0.04 -0.04,-0.06 -0.02,-0.02 -0.03,-0.04 -0.05,-0.06 l -1.23999,-1.499982 -0.04,-0.04 0.05,-0.03 c 0.29,-0.169998 0.59,-0.309996 0.89999,-0.429994 0.31,-0.109999 0.62999,-0.199998 0.94999,-0.259997 0.43999,-0.07 0.86999,-0.08 1.28998,-0.05 0.43,0.03 0.85999,0.119998 1.27998,0.249997 0.42,0.139998 0.80999,0.319995 1.16999,0.539993 0.36999,0.229997 0.69999,0.499993 0.99999,0.809989 0.24999,0.259996 0.46999,0.529993 0.65999,0.809989 0.19999,0.289996 0.35999,0.589992 0.49999,0.909988 0.14,0.319995 0.24,0.649991 0.31,0.989986 0.07,0.339996 0.1,0.679991 0.1,1.039986 v 0.06 0.01 z"
         class="fil1" />
      <path
         style="clip-rule:evenodd;fill:#e74928;fill-rule:evenodd;stroke-width:0.0050329;image-rendering:optimizeQuality;shape-rendering:geometricPrecision;text-rendering:geometricPrecision"
         id="path17"
         d="m -65.741732,49.944719 2.419969,-5.679924 c 0.179997,-0.409995 0.579991,-0.699991 1.049986,-0.699991 0.629992,0 1.139984,0.519993 1.139984,1.149985 0,0.159998 -0.03,0.319995 -0.09,0.459994 l -3.659952,8.589885 v 0.01 h -0.01 v 0.01 0.01 h -0.01 v 0.01 l -0.08,0.149998 c -0.209997,0.329996 -0.609992,0.529993 -1.009986,0.509993 -0.419994,-0.03 -0.769988,-0.259996 -0.959988,-0.639991 l -2.339967,-4.769937 c -0.119999,-0.239997 -0.459994,-0.259997 -0.599993,0 l -2.339967,4.769936 c -0.189997,0.379995 -0.539993,0.619992 -0.949989,0.639991 h -0.01 c -0.479994,0.02 -0.879989,-0.229996 -1.099987,-0.69999 l -3.659945,-8.589885 c -0.06,-0.139999 -0.09,-0.299996 -0.09,-0.459994 0,-0.629992 0.509995,-1.149985 1.129985,-1.149985 0.469996,0 0.879989,0.289996 1.049986,0.699991 l 2.429968,5.679924 c 0.11,0.239997 0.409995,0.259996 0.549994,0 l 2.259968,-4.609939 v -0.01 c 0.199999,-0.389995 0.559993,-0.629991 0.989989,-0.639991 h 0.01 0.02 0.02 0.01 0.01 c 0.429995,0.01 0.78999,0.249996 0.979987,0.639991 l 0.01,0.01 2.259971,4.609939 c 0.139999,0.259996 0.439994,0.239997 0.559993,0 z"
         class="fil0" />
      <path
         style="clip-rule:evenodd;fill:#e74928;fill-rule:evenodd;stroke-width:0.0050329;image-rendering:optimizeQuality;shape-rendering:geometricPrecision;text-rendering:geometricPrecision"
         id="path19"
         d="m -84.661477,43.604803 c 0.429993,-0.07 0.859988,-0.1 1.289981,-0.07 0.419994,0.04 0.84999,0.119999 1.269984,0.249997 0.419994,0.139998 0.809988,0.319996 1.179984,0.539993 0.359994,0.229997 0.699992,0.499993 1.009986,0.809989 0.249997,0.259996 0.479994,0.529993 0.669991,0.819989 0.199998,0.299996 0.359995,0.609992 0.499994,0.949987 0.139998,0.329996 0.239998,0.669991 0.309996,1.019987 0.06,0.339995 0.09,0.69999 0.09,1.059985 0,0.569993 -0.1,1.129985 -0.279995,1.689978 -0.09,0.269996 -0.209998,0.529993 -0.339995,0.779989 -0.130001,0.249997 -0.279998,0.489994 -0.449996,0.729991 -0.269996,0.369995 -0.579993,0.689991 -0.929986,0.979987 -0.349996,0.279996 -0.739992,0.519993 -1.159986,0.70999 -0.419995,0.189997 -0.849988,0.329996 -1.299983,0.419994 -0.439994,0.08 -0.879988,0.109999 -1.349981,0.08 -0.469993,-0.04 -0.929987,-0.129998 -1.389981,-0.289996 -0.229997,-0.08 -0.439994,-0.169997 -0.649991,-0.269996 -0.209997,-0.109999 -0.409996,-0.219997 -0.609991,-0.349995 -0.189998,-0.129999 -0.379995,-0.269997 -0.549995,-0.419995 -0.179996,-0.159997 -0.339995,-0.319996 -0.499991,-0.489993 -0.159999,-0.179998 -0.299998,-0.359995 -0.439994,-0.559993 -0.130001,-0.189997 -0.249997,-0.389994 -0.349996,-0.609992 -0.109998,-0.209997 -0.189998,-0.419994 -0.269997,-0.629991 -0.07,-0.219997 -0.129998,-0.439994 -0.179999,-0.669991 -0.05,-0.219997 -0.08,-0.449994 -0.1,-0.669991 -0.02,-0.229997 -0.02,-0.459994 -0.01,-0.679991 0.01,-0.229997 0.04,-0.459994 0.07,-0.679991 0.04,-0.229997 0.09,-0.449994 0.159996,-0.669991 0.06,-0.229997 0.139999,-0.439994 0.239999,-0.649991 0.09,-0.209998 0.199995,-0.409995 0.319995,-0.609992 0.08,-0.149998 0.179996,-0.289996 0.289996,-0.439994 0.08,-0.1 0.159996,-0.189998 0.249997,-0.289997 l 1.40998,1.709978 -0.02,0.03 c -0.03,0.06 -0.07,0.109998 -0.1,0.159997 l -0.09,0.179998 c -0.139999,0.259997 -0.239999,0.529993 -0.299996,0.809989 -0.06,0.279996 -0.08,0.569992 -0.07,0.869988 0.01,0.229997 0.05,0.449994 0.109998,0.659991 0.05,0.219997 0.139999,0.419995 0.239998,0.619992 0.03,0.05 0.05,0.1 0.08,0.149998 l 0.01,0.03 c 0.08,0.129998 0.169998,0.249996 0.259999,0.369995 0.109997,0.139998 0.239995,0.269996 0.369993,0.399994 0.139999,0.119999 0.289996,0.229997 0.439994,0.329996 0.149998,0.1 0.319995,0.189997 0.489995,0.269996 0.169998,0.07 0.349994,0.129999 0.529992,0.179998 0.189998,0.04 0.379995,0.06 0.569992,0.07 0.189997,0.01 0.379995,0 0.569992,-0.02 0.179999,-0.03 0.369996,-0.07 0.549992,-0.129998 0.17,-0.06 0.339998,-0.129998 0.499994,-0.209997 0.169997,-0.08 0.319997,-0.179998 0.469995,-0.289996 0.149998,-0.109999 0.289997,-0.229997 0.409993,-0.359995 0.13,-0.129999 0.239998,-0.259997 0.349996,-0.409995 0.109998,-0.169998 0.209997,-0.349995 0.289997,-0.529993 0.08,-0.189997 0.149997,-0.379995 0.189997,-0.579992 0.05,-0.189998 0.08,-0.389995 0.09,-0.589992 0.01,-0.199997 0,-0.399994 -0.03,-0.609992 -0.03,-0.199997 -0.08,-0.389995 -0.139999,-0.569992 -0.06,-0.18 -0.129996,-0.339998 -0.219994,-0.499996 -0.110001,-0.189997 -0.239998,-0.379995 -0.379997,-0.549992 -0.139997,-0.169998 -0.299995,-0.329996 -0.479992,-0.469994 -0.17,-0.139998 -0.359997,-0.259997 -0.559993,-0.359995 -0.199998,-0.1 -0.399994,-0.179998 -0.619993,-0.229997 -0.219995,-0.06 -0.439994,-0.1 -0.649991,-0.109999 -0.219996,-0.01 -0.449993,-0.01 -0.669991,0.03 -0.1,0.01 -0.199996,0.03 -0.289997,0.05 -0.1,0.03 -0.189997,0.05 -0.289994,0.09 l -0.03,0.01 -1.42998,-1.729976 0.06,-0.02 c 0.249996,-0.129999 0.499993,-0.239997 0.759989,-0.319996 0.259998,-0.09 0.529992,-0.159998 0.80999,-0.209997 z"
         class="fil0" />
      <path
         style="clip-rule:evenodd;fill:#e74928;fill-rule:nonzero;stroke-width:0.0050329;image-rendering:optimizeQuality;shape-rendering:geometricPrecision;text-rendering:geometricPrecision"
         id="path21"
         d="m -43.30203,43.424806 c 0.139996,0.01 0.279995,0.04 0.409993,0.1 0.129998,0.06 0.239998,0.139998 0.349996,0.239997 0.1,0.1 0.179996,0.209997 0.229997,0.349995 0.05,0.119998 0.08,0.259996 0.08,0.409995 0,0.149997 -0.03,0.299995 -0.08,0.429994 -0.06,0.129998 -0.139999,0.249996 -0.249997,0.369995 -0.1,0.109998 -0.219998,0.189997 -0.359995,0.239997 -0.129997,0.06 -0.269996,0.08 -0.429995,0.08 h -0.09 c -0.209997,0.02 -0.429996,0.05 -0.629992,0.1 -0.199998,0.04 -0.409995,0.109998 -0.599993,0.199997 -0.189997,0.09 -0.369993,0.189997 -0.539993,0.319996 -0.159996,0.109998 -0.309994,0.239996 -0.459991,0.399994 -0.139999,0.149998 -0.269997,0.299996 -0.389996,0.479994 -0.109998,0.169998 -0.199999,0.359995 -0.279996,0.549992 -0.08,0.199998 -0.139999,0.399995 -0.179998,0.609992 -0.04,0.199997 -0.06,0.429994 -0.06,0.649992 v 4.409941 c 0,0.149998 -0.03,0.289996 -0.08,0.429994 -0.06,0.129999 -0.139997,0.249997 -0.239996,0.359995 -0.109998,0.109999 -0.229997,0.189998 -0.369996,0.239997 -0.129998,0.05 -0.269996,0.08 -0.429993,0.08 -0.149997,0 -0.289996,-0.03 -0.429995,-0.08 -0.129998,-0.05 -0.249997,-0.129998 -0.359995,-0.239997 -0.109998,-0.1 -0.189997,-0.219997 -0.239996,-0.359995 -0.05,-0.129998 -0.08,-0.269996 -0.08,-0.429994 v -4.409942 c 0,-0.379995 0.04,-0.73999 0.109998,-1.099985 0.06,-0.359995 0.169997,-0.689991 0.319995,-1.029987 0.129998,-0.329995 0.299998,-0.629991 0.489995,-0.919987 0.189997,-0.279996 0.409993,-0.549993 0.649991,-0.799989 0.229997,-0.239997 0.499994,-0.469994 0.779989,-0.669992 0.279996,-0.189997 0.589992,-0.369995 0.909987,-0.519993 0.329996,-0.149998 0.659993,-0.259996 1.009986,-0.349995 0.349996,-0.08 0.709991,-0.119998 1.079987,-0.129998 h 0.01 0.15 z"
         class="fil2" />
      <path
         style="clip-rule:evenodd;fill:#e74928;fill-rule:evenodd;stroke-width:0.0050329;image-rendering:optimizeQuality;shape-rendering:geometricPrecision;text-rendering:geometricPrecision"
         id="path23"
         d="m -38.882092,43.024811 c -0.03,0 -0.05,-0.01 -0.08,-0.02 -0.03,-0.01 -0.05,-0.03 -0.07,-0.05 -0.02,-0.02 -0.03,-0.04 -0.04,-0.07 -0.01,-0.02 -0.02,-0.05 -0.02,-0.08 v -0.879988 l -0.129998,0.129998 c -0.02,0.02 -0.05,0.04 -0.07,0.06 -0.03,0.02 -0.06,0.04 -0.09,0.05 -0.03,0.01 -0.06,0.02 -0.09,0.03 -0.04,0 -0.07,0.01 -0.1,0.01 -0.03,0 -0.07,-0.01 -0.1,-0.01 -0.03,-0.01 -0.06,-0.02 -0.09,-0.03 -0.04,-0.01 -0.06,-0.03 -0.09,-0.05 -0.03,-0.02 -0.05,-0.04 -0.07,-0.06 l -0.139988,-0.129998 v 0.879988 c 0,0.03 0,0.06 -0.01,0.08 -0.01,0.03 -0.03,0.05 -0.05,0.07 -0.02,0.03 -0.04,0.04 -0.07,0.05 -0.03,0.01 -0.05,0.02 -0.08,0.02 -0.03,0 -0.06,-0.01 -0.09,-0.02 -0.02,-0.01 -0.05,-0.02 -0.07,-0.05 -0.02,-0.02 -0.03,-0.04 -0.04,-0.07 -0.02,-0.02 -0.02,-0.05 -0.02,-0.08 V 41.39483 c 0,-0.03 0,-0.06 0.02,-0.08 0.01,-0.03 0.02,-0.05 0.04,-0.07 0.02,-0.02 0.05,-0.04 0.07,-0.05 0.08,-0.03 0.169997,-0.01 0.229997,0.04 l 0.01,0.01 0.03,0.03 0.449993,0.449994 c 0.01,0.01 0.02,0.02 0.04,0.03 h 0.04 0.03 c 0.02,-0.01 0.03,-0.02 0.04,-0.02 l 0.389996,-0.399994 0.02,-0.02 c 0.09,-0.09 0.169997,-0.179998 0.319995,-0.119999 0.02,0.01 0.05,0.03 0.07,0.05 0.02,0.02 0.03,0.04 0.04,0.07 0.01,0.02 0.02,0.05 0.02,0.08 v 1.409981 c 0,0.03 -0.01,0.06 -0.02,0.08 -0.01,0.03 -0.02,0.05 -0.04,0.07 -0.02,0.03 -0.05,0.04 -0.07,0.05 -0.03,0.01 -0.06,0.02 -0.09,0.02 z"
         class="fil0" />
      <path
         style="clip-rule:evenodd;fill:#e74928;fill-rule:evenodd;stroke-width:0.0050329;image-rendering:optimizeQuality;shape-rendering:geometricPrecision;text-rendering:geometricPrecision"
         id="path25"
         d="m -40.802064,41.164836 c 0.03,0 0.06,0.01 0.09,0.02 0.02,0.01 0.05,0.03 0.07,0.05 0.02,0.02 0.03,0.04 0.04,0.07 0.01,0.02 0.02,0.05 0.02,0.08 0,0.06 -0.02,0.109999 -0.06,0.149998 -0.03,0.02 -0.05,0.04 -0.07,0.05 -0.03,0.01 -0.06,0.02 -0.09,0.02 h -0.199998 -0.179996 v 1.189984 c 0,0.03 0,0.06 -0.01,0.09 -0.01,0.02 -0.03,0.04 -0.05,0.07 -0.02,0.02 -0.05,0.03 -0.07,0.04 -0.03,0.01 -0.06,0.02 -0.08,0.02 -0.03,0 -0.06,-0.01 -0.09,-0.02 -0.02,-0.01 -0.05,-0.02 -0.07,-0.05 -0.02,-0.02 -0.03,-0.04 -0.04,-0.07 -0.02,-0.02 -0.02,-0.05 -0.02,-0.08 V 41.60483 h -0.149998 -0.229997 c -0.03,0 -0.06,-0.01 -0.08,-0.02 -0.03,-0.01 -0.05,-0.03 -0.07,-0.05 -0.02,-0.02 -0.04,-0.04 -0.05,-0.07 -0.01,-0.02 -0.02,-0.05 -0.02,-0.08 0,-0.06 0.03,-0.109998 0.07,-0.149998 0.02,-0.02 0.04,-0.04 0.07,-0.05 0.02,-0.01 0.05,-0.02 0.08,-0.02 h 0.229997 0.769991 0.199996 z"
         class="fil0" />
      <path
         style="clip-rule:evenodd;fill:#e74928;fill-rule:evenodd;stroke-width:0.0050329;image-rendering:optimizeQuality;shape-rendering:geometricPrecision;text-rendering:geometricPrecision"
         id="path27"
         d="m -49.891944,48.974732 c -0.01,0.309995 -0.119996,0.569992 -0.349993,0.769989 -0.110001,0.109999 -0.229997,0.189998 -0.369996,0.239997 -0.119999,0.06 -0.269997,0.09 -0.429996,0.1 h -7.479898 c 0.01,0.04 0.03,0.09 0.05,0.129998 0.03,0.07 0.06,0.139998 0.1,0.209997 0.02,0.04 0.04,0.08 0.07,0.129999 0.08,0.149998 0.179999,0.289996 0.279995,0.429994 0.12,0.149998 0.239999,0.279996 0.389996,0.419994 0.129998,0.119999 0.279996,0.239997 0.439994,0.339996 0.159999,0.1 0.329997,0.189997 0.499994,0.259996 0.179996,0.08 0.379995,0.139998 0.579993,0.179998 0.199996,0.04 0.419995,0.07 0.63999,0.08 h 0.07 c 0.150001,0 0.299998,0.03 0.419995,0.08 0.13,0.05 0.249997,0.129998 0.359997,0.229997 0.1,0.1 0.179996,0.219997 0.229997,0.349995 0.05,0.129998 0.08,0.269996 0.08,0.429994 0,0.149998 -0.03,0.289996 -0.08,0.429994 -0.05,0.129999 -0.13,0.249997 -0.229997,0.359996 -0.1,0.109998 -0.219998,0.189997 -0.359997,0.239996 -0.119997,0.05 -0.259996,0.08 -0.419995,0.08 h -0.189997 c -0.04,0 -0.07,0 -0.1,-0.01 -0.03,0 -0.06,0 -0.09,-0.01 -0.229997,-0.02 -0.469993,-0.05 -0.69999,-0.1 -0.229997,-0.04 -0.469995,-0.109998 -0.699989,-0.189997 -0.219999,-0.07 -0.449996,-0.169998 -0.659993,-0.269996 -0.209997,-0.1 -0.419994,-0.209998 -0.609991,-0.349996 -0.399995,-0.249997 -0.749991,-0.559992 -1.079987,-0.909988 -0.149998,-0.179997 -0.299995,-0.369995 -0.439994,-0.569992 -0.129998,-0.189998 -0.249995,-0.399995 -0.369994,-0.619992 -0.209997,-0.429994 -0.369996,-0.859988 -0.459994,-1.319982 -0.08,-0.369995 -0.119999,-0.73999 -0.119999,-1.129985 v -0.04 c 0,-0.07 0,-0.149998 0.01,-0.219997 0.01,-0.479994 0.09,-0.929988 0.219996,-1.379982 0.139999,-0.439994 0.339995,-0.859988 0.589992,-1.269983 l 0.07,-0.1 0.07,-0.109998 c 0.03,-0.03 0.05,-0.07 0.08,-0.109999 0.02,-0.03 0.05,-0.06 0.07,-0.09 l 0.05,-0.05 0.04,0.04 1.209985,1.459981 c 0.03,0.04 0.06,0.07 0.09,0.1 0.03,0.03 0.07,0.06 0.1,0.08 l 0.04,0.03 -0.02,0.04 c -0.05,0.09 -0.1,0.179997 -0.139999,0.269996 -0.04,0.08 -0.07,0.149998 -0.09,0.229997 h 6.239918 c -0.02,-0.06 -0.05,-0.129998 -0.08,-0.189998 -0.03,-0.09 -0.08,-0.179997 -0.129998,-0.269996 -0.1,-0.199997 -0.229997,-0.389995 -0.379995,-0.559992 -0.14001,-0.169998 -0.300009,-0.339996 -0.490006,-0.479994 -0.169997,-0.139998 -0.369993,-0.259996 -0.569992,-0.369995 -0.199996,-0.1 -0.419994,-0.179998 -0.63999,-0.239997 -0.209997,-0.06 -0.439994,-0.09 -0.659992,-0.109998 -0.219996,-0.01 -0.449993,0 -0.67999,0.04 -0.15,0.02 -0.309997,0.06 -0.459994,0.1 -0.139999,0.05 -0.279998,0.1 -0.429996,0.159997 l -0.04,0.02 -0.02,-0.03 c -0.02,-0.02 -0.03,-0.04 -0.04,-0.06 -0.02,-0.02 -0.03,-0.04 -0.05,-0.06 l -1.259983,-1.519979 -0.04,-0.04 0.05,-0.03 c 0.289995,-0.169999 0.599992,-0.319997 0.909988,-0.439996 0.319995,-0.109998 0.63999,-0.199997 0.959988,-0.259996 0.449993,-0.07 0.879988,-0.08 1.309981,-0.05 0.439994,0.03 0.86999,0.119998 1.299983,0.249997 0.429995,0.139998 0.819988,0.329995 1.189984,0.549992 0.379995,0.229997 0.709991,0.509994 1.019985,0.819989 0.249997,0.259997 0.479994,0.539993 0.669991,0.819989 0.19,0.289996 0.369996,0.599992 0.509995,0.919988 0.139996,0.329996 0.239996,0.659991 0.319995,1.009987 0.07,0.349995 0.1,0.68999 0.1,1.059985 v 0.06 0.01 z"
         class="fil0" />
      <path
         style="clip-rule:evenodd;fill:#e74928;fill-rule:evenodd;stroke-width:0.0050329;image-rendering:optimizeQuality;shape-rendering:geometricPrecision;text-rendering:geometricPrecision"
         id="path29"
         d="m -89.581412,52.88468 c -0.06,-0.129999 -0.139999,-0.249997 -0.239996,-0.359996 -0.11,-0.109998 -0.229997,-0.189997 -0.369996,-0.249996 -0.129998,-0.05 -0.269997,-0.08 -0.429995,-0.08 h -0.09 c -0.209998,0 -0.429993,-0.03 -0.629992,-0.08 -0.199996,-0.04 -0.399994,-0.109999 -0.589992,-0.199998 -0.189997,-0.09 -0.379994,-0.199997 -0.539993,-0.329995 -0.169997,-0.109999 -0.329996,-0.249997 -0.469993,-0.399995 -0.139999,-0.149998 -0.259998,-0.299996 -0.389995,-0.479993 -0.109998,-0.169998 -0.199996,-0.359996 -0.289997,-0.549993 -0.08,-0.189997 -0.139996,-0.399995 -0.179996,-0.609992 -0.04,-0.199997 -0.06,-0.429994 -0.06,-0.649991 l 0.01,-4.419941 h 0.819988 c 0.569995,0 1.029989,-0.459994 1.029989,-1.029986 v -0.179996 c 0,-0.569992 -0.459994,-1.029986 -1.029989,-1.029986 h -0.819984 v -2.049973 c 0,-0.149998 -0.02,-0.289996 -0.08,-0.429994 -0.05,-0.119998 -0.13,-0.239997 -0.239998,-0.359995 -0.219996,-0.209997 -0.489993,-0.309996 -0.78999,-0.309996 -0.159997,0 -0.299995,0.03 -0.439994,0.08 -0.129998,0.05 -0.249997,0.129998 -0.359995,0.229997 -0.109998,0.109998 -0.189997,0.229997 -0.239996,0.359995 -0.05,0.129998 -0.08,0.269996 -0.08,0.429994 v 2.049973 h -0.289997 c -0.61999,0 -1.119984,0.499993 -1.119984,1.119985 0,0.619992 0.499994,1.119985 1.119984,1.119985 h 0.289997 v 4.419941 c 0,0.379995 0.04,0.73999 0.109998,1.099985 0.06,0.359995 0.169997,0.689991 0.319995,1.029986 0.139999,0.319996 0.299997,0.629992 0.499993,0.909988 0.189998,0.289996 0.409996,0.559993 0.649992,0.809989 0.229997,0.239997 0.499993,0.469994 0.779991,0.669991 0.279996,0.189998 0.589992,0.369995 0.909987,0.519993 0.319995,0.139998 0.65999,0.259997 1.009986,0.339996 0.359995,0.08 0.709991,0.129998 1.089986,0.139998 h 0.1 0.01 0.04 c 0.149997,-0.01 0.279998,-0.05 0.409995,-0.1 0.129998,-0.06 0.239996,-0.139998 0.349997,-0.239997 0.1,-0.1 0.179996,-0.219997 0.229997,-0.349995 0.05,-0.119998 0.08,-0.259996 0.08,-0.419994 0,-0.149998 -0.03,-0.289996 -0.08,-0.429994 z"
         class="fil0" />
    </g>
  </g>
</svg>
